<?xml version="1.0" encoding="UTF-8" standalone="no"?>
<!DOCTYPE svg PUBLIC "-//W3C//DTD SVG 1.1//EN"
 "http://www.w3.org/Graphics/SVG/1.1/DTD/svg11.dtd">
<!-- Generated by graphviz version 10.0.1 (20240210.2158)
 -->
<!-- Title: EquilibriumIndex::test Pages: 1 -->
<svg width="435pt" height="76pt"
 viewBox="0.00 0.00 434.75 75.88" xmlns="http://www.w3.org/2000/svg" xmlns:xlink="http://www.w3.org/1999/xlink">
<g id="graph0" class="graph" transform="scale(1 1) rotate(0) translate(4 71.88)">
<title>EquilibriumIndex::test</title>
<!-- Node1 -->
<g id="Node000001" class="node">
<title>Node1</title>
<g id="a_Node000001"><a xlink:title="Function to perform tests.">
<polygon fill="#999999" stroke="#666666" points="110.5,-45.88 0,-45.88 0,-26.62 110.5,-26.62 110.5,-45.88"/>
<text text-anchor="middle" x="55.25" y="-32.38" font-family="Helvetica,sans-Serif" font-size="10.00">EquilibriumIndex::test</text>
</a>
</g>
</g>
<!-- Node2 -->
<g id="Node000002" class="node">
<title>Node2</title>
<g id="a_Node000002"><a target="_blank" xlink:href="http://en.cppreference.com/w/cpp/io/manip/endl.html#" xlink:title=" ">
<polygon fill="white" stroke="#666666" points="252.12,-67.88 198.62,-67.88 198.62,-48.62 252.12,-48.62 252.12,-67.88"/>
<text text-anchor="middle" x="225.38" y="-54.38" font-family="Helvetica,sans-Serif" font-size="10.00">std::endl</text>
</a>
</g>
</g>
<!-- Node1&#45;&gt;Node2 -->
<g id="edge1_Node000001_Node000002" class="edge">
<title>Node1&#45;&gt;Node2</title>
<g id="a_edge1_Node000001_Node000002"><a xlink:title=" ">
<path fill="none" stroke="#63b8ff" d="M110.84,-43.39C135.71,-46.65 164.52,-50.42 186.89,-53.35"/>
<polygon fill="#63b8ff" stroke="#63b8ff" points="186.4,-56.81 196.77,-54.64 187.31,-49.87 186.4,-56.81"/>
</a>
</g>
</g>
<!-- Node3 -->
<g id="Node000003" class="node">
<title>Node3</title>
<g id="a_Node000003"><a xlink:href="../../de/dfc/namespace_equilibrium_index.html#a1f6c6b4d9486dc567126ac41ecb5cea4" target="_top" xlink:title="Function to find the equilibrium index of an array.">
<polygon fill="white" stroke="#666666" points="304.25,-30.5 146.5,-30.5 146.5,0 304.25,0 304.25,-30.5"/>
<text text-anchor="start" x="154.5" y="-17" font-family="Helvetica,sans-Serif" font-size="10.00">EquilibriumIndex::findEquilibrium</text>
<text text-anchor="middle" x="225.38" y="-5.75" font-family="Helvetica,sans-Serif" font-size="10.00">Index</text>
</a>
</g>
</g>
<!-- Node1&#45;&gt;Node3 -->
<g id="edge2_Node000001_Node000003" class="edge">
<title>Node1&#45;&gt;Node3</title>
<g id="a_edge2_Node000001_Node000003"><a xlink:title=" ">
<path fill="none" stroke="#63b8ff" d="M110.84,-29.43C118.61,-28.46 126.78,-27.44 135.01,-26.41"/>
<polygon fill="#63b8ff" stroke="#63b8ff" points="135.26,-29.91 144.75,-25.2 134.39,-22.96 135.26,-29.91"/>
</a>
</g>
</g>
<!-- Node4 -->
<g id="Node000004" class="node">
<title>Node4</title>
<g id="a_Node000004"><a target="_blank" xlink:href="http://en.cppreference.com/w/cpp/container/vector/size.html#" xlink:title=" ">
<polygon fill="white" stroke="#666666" points="426.75,-24.88 340.25,-24.88 340.25,-5.63 426.75,-5.63 426.75,-24.88"/>
<text text-anchor="middle" x="383.5" y="-11.38" font-family="Helvetica,sans-Serif" font-size="10.00">std::vector::size</text>
</a>
</g>
</g>
<!-- Node3&#45;&gt;Node4 -->
<g id="edge3_Node000003_Node000004" class="edge">
<title>Node3&#45;&gt;Node4</title>
<g id="a_edge3_Node000003_Node000004"><a xlink:title=" ">
<path fill="none" stroke="#63b8ff" d="M304.44,-15.25C312.54,-15.25 320.64,-15.25 328.39,-15.25"/>
<polygon fill="#63b8ff" stroke="#63b8ff" points="328.32,-18.75 338.32,-15.25 328.32,-11.75 328.32,-18.75"/>
</a>
</g>
</g>
</g>
</svg>
